<?xml version="1.0" standalone="no"?><!DOCTYPE svg PUBLIC "-//W3C//DTD SVG 1.1//EN" "http://www.w3.org/Graphics/SVG/1.1/DTD/svg11.dtd"><svg t="1675784585498" class="icon" viewBox="0 0 1024 1024" version="1.1" xmlns="http://www.w3.org/2000/svg" p-id="1931" xmlns:xlink="http://www.w3.org/1999/xlink" width="200" height="200"><path d="M470.55 143.21c42.21 0 83.34 8 122.24 23.78 40.24 16.32 76.38 40.32 107.4 71.34 31.02 31.02 55.02 67.16 71.34 107.4 15.78 38.9 23.78 80.03 23.78 122.24 0 42.21-8 83.34-23.78 122.24-16.32 40.24-40.32 76.38-71.34 107.4-31.02 31.02-67.16 55.02-107.4 71.34-38.9 15.78-80.03 23.78-122.24 23.78-42.21 0-83.34-8-122.24-23.78-40.24-16.32-76.38-40.32-107.4-71.34-31.02-31.02-55.02-67.16-71.34-107.4-15.78-38.9-23.78-80.03-23.78-122.24 0-42.21 8-83.34 23.78-122.24 16.32-40.24 40.32-76.38 71.34-107.4 31.02-31.02 67.16-55.02 107.4-71.34 38.9-15.79 80.03-23.78 122.24-23.78m0-64c-99.49 0-198.98 37.95-274.89 113.86-151.82 151.82-151.82 397.97 0 549.79 75.91 75.91 175.4 113.86 274.89 113.86s198.98-37.95 274.89-113.86c151.82-151.82 151.82-397.97 0-549.79-75.91-75.91-175.4-113.86-274.89-113.86z" p-id="1932"></path><path d="M723.97 674.39l-51.74 51.74 198.9 198.9c6.25 6.25 14.44 9.37 22.63 9.37s16.38-3.12 22.63-9.37l6.49-6.49c12.5-12.5 12.5-32.76 0-45.25l-198.91-198.9z" p-id="1933"></path></svg>